<svg xmlns="http://www.w3.org/2000/svg" width="220" height="220" viewBox="0 0 220 220" fill="none">
  <g stroke="#11A582" stroke-opacity="0.12" stroke-width="1.5" stroke-linecap="round" stroke-linejoin="round">
    <rect x="20" y="20" width="32" height="26" rx="4"/>
    <path d="M20 30h32M28 16v8M44 16v8"/>
    <path d="M106 34h28M120 20v28"/>
    <path d="M176 18l20 20M196 18l-20 20"/>
    <rect x="26" y="98" width="28" height="18" rx="4"/>
    <path d="M20 126l8 8 18-18"/>
    <circle cx="112" cy="108" r="10"/>
    <circle cx="112" cy="108" r="3"/>
    <path d="M112 92v-6M112 130v-6M96 108h-6M134 108h-6M100.7 96.7l-4.2-4.2M127.5 123.5l-4.2-4.2M123.3 96.7l4.2-4.2M96.5 123.5l4.2-4.2"/>
    <path d="M170 98h28l-6 8 6 8h-28"/>
    <path d="M24 182h24M24 188h16"/>
    <rect x="76" y="168" width="36" height="22" rx="4"/>
    <path d="M84 174h20M84 180h12"/>
    <path d="M172 166h26M185 153v26"/>
  </g>
</svg>
